<svg width="44" height="44" viewBox="0 0 44 44" fill="none" xmlns="http://www.w3.org/2000/svg">
<rect width="44" height="44" rx="10" fill="#2ECC71"/>
<path d="M16.3561 24.518C17.0699 25.7084 17.9973 26.8552 18.958 27.8778C17.9758 26.8323 17.0601 25.6899 16.3603 24.525C16.3589 24.5227 16.3575 24.5203 16.3561 24.518ZM16.3561 24.518C15.6639 23.3641 15.1485 22.1299 15.0375 20.9095C15.146 22.1026 15.645 23.332 16.3561 24.518ZM25 20C25 21.6569 23.6569 23 22 23C20.3431 23 19 21.6569 19 20C19 18.3431 20.3431 17 22 17C23.6569 17 25 18.3431 25 20ZM25.1253 27.8778C26.1074 26.8323 27.0232 25.6899 27.7229 24.525C28.4173 23.369 28.9346 22.1324 29.0458 20.9095C28.8284 23.3002 27.0431 25.8362 25.1253 27.8778Z" stroke="white" stroke-width="2"/>
</svg>
