<svg width="24" height="24" viewBox="0 0 24 24" fill="none" xmlns="http://www.w3.org/2000/svg">
<path d="M6 8C6 7.44772 6.44772 7 7 7L17 7C17.5523 7 18 7.44772 18 8C18 8.55229 17.5523 9 17 9L7 9C6.44772 9 6 8.55228 6 8Z" fill="#171725"/>
<path d="M7 11C6.44772 11 6 11.4477 6 12C6 12.5523 6.44772 13 7 13L13 13C13.5523 13 14 12.5523 14 12C14 11.4477 13.5523 11 13 11L7 11Z" fill="#171725"/>
<path fill-rule="evenodd" clip-rule="evenodd" d="M5 2C3.34315 2 2 3.34315 2 5V15C2 16.6569 3.34315 18 5 18H14.9101C15.088 18 15.2627 18.0475 15.4162 18.1375L20.494 21.1165C21.1606 21.5076 22 21.0268 22 20.2539V5C22 3.34315 20.6569 2 19 2H5ZM19 4H5C4.44772 4 4 4.44772 4 5V15C4 15.5523 4.44772 16 5 16H14.9101C15.4438 16 15.9679 16.1424 16.4282 16.4124L20 18.5079V5C20 4.44771 19.5523 4 19 4Z" fill="#171725"/>
</svg>
