<svg width="30" height="30" viewBox="0 0 30 30" fill="none" xmlns="http://www.w3.org/2000/svg">
<g filter="url(#filter0_d_526_20)">
<path fill-rule="evenodd" clip-rule="evenodd" d="M15.5758 13.8132L16.2047 13.221L21.5261 8.20996L8.32711 8.20996L13.0146 13.0254L13.5815 13.6078V14.4205V19.3553L15.5758 18.3309V14.677V13.8132ZM16.1189 18.052L16.1178 18.0526L16.1189 18.052ZM11.5815 14.4205L11.5815 20.9931C11.5815 21.7413 12.3729 22.2245 13.0384 21.8827L17.0327 19.831C17.3662 19.6597 17.5758 19.3163 17.5758 18.9415V14.677L24.7323 7.93798C25.3914 7.31724 24.9522 6.20996 24.0467 6.20996L5.95811 6.20996C5.07368 6.20996 4.62464 7.27374 5.24155 7.90749L11.5815 14.4205Z" fill="#171725"/>
<path d="M6 5C6 3.89543 6.89543 3 8 3L22 3C23.1046 3 24 3.89543 24 5V7.31494L6 7.31493L6 5Z" stroke="#171725" stroke-width="2"/>
</g>
<defs>
<filter id="filter0_d_526_20" x="-1" y="0" width="32" height="32" filterUnits="userSpaceOnUse" color-interpolation-filters="sRGB">
<feFlood flood-opacity="0" result="BackgroundImageFix"/>
<feColorMatrix in="SourceAlpha" type="matrix" values="0 0 0 0 0 0 0 0 0 0 0 0 0 0 0 0 0 0 127 0" result="hardAlpha"/>
<feOffset dy="4"/>
<feGaussianBlur stdDeviation="2"/>
<feComposite in2="hardAlpha" operator="out"/>
<feColorMatrix type="matrix" values="0 0 0 0 0 0 0 0 0 0 0 0 0 0 0 0 0 0 0.25 0"/>
<feBlend mode="normal" in2="BackgroundImageFix" result="effect1_dropShadow_526_20"/>
<feBlend mode="normal" in="SourceGraphic" in2="effect1_dropShadow_526_20" result="shape"/>
</filter>
</defs>
</svg>
