<svg width="24" height="24" viewBox="0 0 24 24" fill="none" xmlns="http://www.w3.org/2000/svg">
<path fill-rule="evenodd" clip-rule="evenodd" d="M7.29977 4L5.07755 9H6.00002H18H18.9225L16.7003 4H7.29977ZM3.53878 11H4.00002V20C4.00002 21.1046 4.89545 22 6.00002 22H11.01H12.99H18C19.1046 22 20 21.1046 20 20V11H20.4613C21.1849 11 21.669 10.2551 21.3751 9.59386L18.264 2.59386C18.1035 2.23273 17.7453 2 17.3502 2H6.6499C6.25471 2 5.89659 2.23273 5.73608 2.59386L2.62497 9.59386C2.33107 10.2551 2.81513 11 3.53878 11ZM15 20H18V11H6.00002V20H9.00005C9.00003 19.9967 9.00002 19.9933 9.00002 19.99V16.01C9.00002 14.8999 9.89993 14 11.01 14H12.99C14.1001 14 15 14.8999 15 16.01V19.99C15 19.9933 15 19.9967 15 20ZM11.01 20H12.99C12.9955 20 13 19.9955 13 19.99V16.01C13 16.0045 12.9955 16 12.99 16H11.01C11.0045 16 11 16.0045 11 16.01V19.99C11 19.9955 11.0045 20 11.01 20Z" fill="#171725"/>
</svg>
