<svg width="25" height="30" viewBox="0 0 25 30" fill="none" xmlns="http://www.w3.org/2000/svg">
<g filter="url(#filter0_dd_309_85)">
<path d="M6.35615 14.518C6.35755 14.5203 6.35895 14.5227 6.36035 14.525C7.01605 15.6166 7.86137 16.6883 8.77328 17.6792C7.87902 16.7076 7.02403 15.6319 6.35615 14.518ZM6.35615 14.518C5.64502 13.332 5.14601 12.1026 5.03754 10.9095M6.35615 14.518L5.03754 10.9095M5.03754 10.9095C4.81693 8.48286 5.59397 6.50742 6.91131 5.13767C5.59349 6.5083 4.81709 8.48461 5.03754 10.9095ZM15.1253 17.8778C16.1074 16.8323 17.0232 15.6899 17.7229 14.525C18.4173 13.369 18.9346 12.1324 19.0458 10.9095C18.8284 13.3002 17.0431 15.8362 15.1253 17.8778ZM15 10C15 11.6569 13.6569 13 12 13C10.3431 13 9 11.6569 9 10C9 8.34315 10.3431 7 12 7C13.6569 7 15 8.34315 15 10Z" stroke="#171725" stroke-width="2"/>
</g>
<defs>
<filter id="filter0_dd_309_85" x="-4" y="0" width="32" height="32" filterUnits="userSpaceOnUse" color-interpolation-filters="sRGB">
<feFlood flood-opacity="0" result="BackgroundImageFix"/>
<feColorMatrix in="SourceAlpha" type="matrix" values="0 0 0 0 0 0 0 0 0 0 0 0 0 0 0 0 0 0 127 0" result="hardAlpha"/>
<feOffset dy="4"/>
<feGaussianBlur stdDeviation="2"/>
<feComposite in2="hardAlpha" operator="out"/>
<feColorMatrix type="matrix" values="0 0 0 0 0 0 0 0 0 0 0 0 0 0 0 0 0 0 0.25 0"/>
<feBlend mode="normal" in2="BackgroundImageFix" result="effect1_dropShadow_309_85"/>
<feColorMatrix in="SourceAlpha" type="matrix" values="0 0 0 0 0 0 0 0 0 0 0 0 0 0 0 0 0 0 127 0" result="hardAlpha"/>
<feOffset dy="4"/>
<feGaussianBlur stdDeviation="2"/>
<feComposite in2="hardAlpha" operator="out"/>
<feColorMatrix type="matrix" values="0 0 0 0 0 0 0 0 0 0 0 0 0 0 0 0 0 0 0.25 0"/>
<feBlend mode="normal" in2="effect1_dropShadow_309_85" result="effect2_dropShadow_309_85"/>
<feBlend mode="normal" in="SourceGraphic" in2="effect2_dropShadow_309_85" result="shape"/>
</filter>
</defs>
</svg>
